<?xml version="1.0" encoding="utf-8"?>
<!-- Generator: Adobe Illustrator 25.0.1, SVG Export Plug-In . SVG Version: 6.00 Build 0)  -->
<svg version="1.1" id="Слой_1" xmlns="http://www.w3.org/2000/svg" xmlns:xlink="http://www.w3.org/1999/xlink" x="0px" y="0px"
	 viewBox="0 0 1000 1000" style="enable-background:new 0 0 1000 1000;" xml:space="preserve">
<style type="text/css">
	.st0{display:none;fill:#1D1D1B;}
	.st1{display:none;fill-rule:evenodd;clip-rule:evenodd;fill:#FFFFFF;}
	.st2{fill:#FFFFFF;}
	.st3{display:none;fill:#FFFFFF;}
	.st4{fill:none;stroke:#FFFFFF;stroke-width:50;stroke-miterlimit:10;}
</style>
<rect x="-73.2" y="-22.4" class="st0" width="1178.2" height="1067.1"/>
<path class="st1" d="M367.1,512.5h123c-17,38-28.1,81.3-33,126.1c-86,20.9-153.9,88.2-175.7,173.8c-8.2,32.1,19.5,59.4,52.6,59.4
	h360c33.1,0,60.8-27.3,52.6-59.4C722,715.8,638.9,642.6,537.2,632.9c6.9-60.9,33.5-117.9,75.8-162.3l125.4-25.9
	c75.9-16,131.7-71.9,143.7-143.7L914,121.3c0-11.4-2-20.7-6.1-29.5c-3.3-7.2-9.2-13.1-16.5-16c-9.8-4-20.6-5.3-29.3-2.4l-183.6,63.9
	c-75.9,24-123.8,91.8-123.8,167.7v111.8l-8,8.8l-24-112.6c-16-75.9-79.8-131.7-159.7-147.7l-203.6-31.9c-14.5-1.9-27.9,0-35.9,12
	c-8,12-12,27.9-8,39.9l67.9,199.6C211.4,460.6,283.3,512.5,367.1,512.5z M698.5,213.1l123.8-39.9l-24,111.8
	c-8,39.9-39.9,71.9-79.8,79.8l-87.8,20v-79.8C630.6,265,658.6,225,698.5,213.1z M259.3,360.8L215.4,225l135.7,20
	c47.9,8,87.8,43.9,95.8,87.8l16,99.8h-95.8C319.2,432.6,275.3,404.7,259.3,360.8z"/>
<path class="st2" d="M500,200c-27.6,0-50,22.4-50,50v200H250c-27.6,0-50,22.4-50,50s22.4,50,50,50h200v200c0,27.6,22.4,50,50,50
	s50-22.4,50-50V550h200c27.6,0,50-22.4,50-50s-22.4-50-50-50H550V250C550,222.4,527.6,200,500,200z"/>
<path class="st3" d="M799.3,285.4c20.9,20.2,22.3,54.5,3.1,76.6l-322,371.6c-9.4,10.9-22.7,17.2-36.6,17.6
	c-14,0.3-27.5-5.4-37.3-15.9L230.9,549.4c-20-21.2-20-55.5,0-76.6c20-21.2,52.4-21.2,72.4,0l137.8,145.8l285.8-329.9
	C746,266.6,778.4,265.1,799.3,285.4z"/>
<circle class="st4" cx="500" cy="500" r="450"/>
</svg>
