<?xml version="1.0" encoding="utf-8"?>
<!-- Generator: Adobe Illustrator 25.0.1, SVG Export Plug-In . SVG Version: 6.00 Build 0)  -->
<svg version="1.1" id="Слой_1" xmlns="http://www.w3.org/2000/svg" xmlns:xlink="http://www.w3.org/1999/xlink" x="0px" y="0px"
	 viewBox="0 0 1000 1000" style="enable-background:new 0 0 1000 1000;" xml:space="preserve">
<style type="text/css">
	.st0{display:none;fill:#1D1D1B;}
	.st1{display:none;fill-rule:evenodd;clip-rule:evenodd;fill:#FFFFFF;}
	.st2{display:none;fill:#FFFFFF;}
	.st3{fill:none;stroke:#FFFFFF;stroke-width:50;stroke-miterlimit:10;}
	.st4{fill:#FFFFFF;}
</style>
<rect x="-73.2" y="-22.4" class="st0" width="1178.2" height="1067.1"/>
<path class="st1" d="M389.7,567.8H482c-12.8,28.6-21.1,61-24.8,94.6c-64.6,15.7-115.5,66.2-131.9,130.5
	c-6.1,24.1,14.6,44.6,39.5,44.6h270.3c24.9,0,45.6-20.5,39.5-44.6c-18.5-72.5-80.9-127.4-157.2-134.7c5.2-45.7,25.2-88.5,56.9-121.8
	l94.1-19.5c56.9-12,98.9-53.9,107.9-107.9l24-134.9c0-8.5-1.5-15.6-4.6-22.1c-2.5-5.4-6.9-9.8-12.4-12c-7.4-3-15.5-4-22-1.8
	l-137.9,48c-56.9,18-92.9,68.9-92.9,125.9v83.9l-6,6.6l-18-84.5C494.6,361,446.6,319,386.7,307l-152.8-24c-10.9-1.4-21,0-27,9
	c-6,9-9,21-6,30l50.9,149.8C272.8,528.8,326.8,567.8,389.7,567.8z M638.4,343l92.9-30l-18,83.9c-6,30-30,53.9-59.9,59.9l-65.9,15
	v-59.9C587.5,381.9,608.5,352,638.4,343z M308.8,453.9l-33-101.9l101.9,15c36,6,65.9,33,71.9,65.9l12,74.9h-71.9
	C353.7,507.8,320.8,486.8,308.8,453.9z"/>
<path class="st2" d="M500,200c-27.6,0-50,22.4-50,50v200H250c-27.6,0-50,22.4-50,50s22.4,50,50,50h200v200c0,27.6,22.4,50,50,50
	s50-22.4,50-50V550h200c27.6,0,50-22.4,50-50s-22.4-50-50-50H550V250C550,222.4,527.6,200,500,200z"/>
<path class="st2" d="M799.3,285.4c20.9,20.2,22.3,54.5,3.1,76.6l-322,371.6c-9.4,10.9-22.7,17.2-36.6,17.6
	c-14,0.3-27.5-5.4-37.3-15.9L230.9,549.4c-20-21.2-20-55.5,0-76.6c20-21.2,52.4-21.2,72.4,0l137.8,145.8l285.8-329.9
	C746,266.6,778.4,265.1,799.3,285.4z"/>
<circle class="st3" cx="500" cy="500" r="450"/>
<path class="st4" d="M515.9,391.1c33.1,0,60,26.9,60,60v300c0,33.1-26.9,60-60,60s-60-26.9-60-60v-300
	C455.9,418,482.8,391.1,515.9,391.1z"/>
<path class="st4" d="M515.9,211.1c33.1,0,60,26.9,60,60s-26.9,60-60,60s-60-26.9-60-60S482.8,211.1,515.9,211.1z"/>
</svg>
